inDegrees=no
num_controls=7
num_derivatives=13
num_iterations=101
num_multipliers=7
num_parameters=0
num_slacks=7
num_states=26
objective=0.445704
objective_accelerations=0.056816
objective_balance=0.003574
objective_effort=0.022831
objective_height=0.356911
objective_ligament=0.005572
solver_duration=1465.732511
status=Solve_Succeeded
success=true
DataType=double
version=3
OpenSimVersion=4.5
endheader
time	/jointset/ground_pelvis/pelvis_tilt/value	/jointset/ground_pelvis/pelvis_tx/value	/jointset/ground_pelvis/pelvis_ty/value	/jointset/hip_l/hip_flexion_l/value	/jointset/hip_l/hip_adduction_l/value	/jointset/hip_l/hip_rotation_l/value	/jointset/back/lumbar_extension/value	/jointset/patellofemoral_l/patellar_flexion_l/value	/jointset/knee_l/knee_flexion_l/value	/jointset/knee_l/knee_adduction_l/value	/jointset/knee_l/knee_rotation_l/value	/jointset/ankle_l/ankle_angle_l/value	/jointset/subtalar_l/subtalar_angle_l/value	/jointset/ground_pelvis/pelvis_tilt/speed	/jointset/ground_pelvis/pelvis_tx/speed	/jointset/ground_pelvis/pelvis_ty/speed	/jointset/hip_l/hip_flexion_l/speed	/jointset/hip_l/hip_adduction_l/speed	/jointset/hip_l/hip_rotation_l/speed	/jointset/back/lumbar_extension/speed	/jointset/patellofemoral_l/patellar_flexion_l/speed	/jointset/knee_l/knee_flexion_l/speed	/jointset/knee_l/knee_adduction_l/speed	/jointset/knee_l/knee_rotation_l/speed	/jointset/ankle_l/ankle_angle_l/speed	/jointset/subtalar_l/subtalar_angle_l/speed	/forceset/tau_hip_flexion_l	/forceset/tau_hip_adduction_l	/forceset/tau_hip_rotation_l	/forceset/tau_knee_flexion_l	/forceset/tau_ankle_angle_l	/forceset/tau_subtalar_angle_l	/forceset/tau_lumbar_extension	lambda_cid13_p0	lambda_cid13_p1	lambda_cid13_p2	lambda_cid13_p3	lambda_cid13_p4	lambda_cid13_p5	lambda_cid14_p0	/jointset/ground_pelvis/pelvis_tilt/accel	/jointset/ground_pelvis/pelvis_tx/accel	/jointset/ground_pelvis/pelvis_ty/accel	/jointset/hip_l/hip_flexion_l/accel	/jointset/hip_l/hip_adduction_l/accel	/jointset/hip_l/hip_rotation_l/accel	/jointset/back/lumbar_extension/accel	/jointset/patellofemoral_l/patellar_flexion_l/accel	/jointset/knee_l/knee_flexion_l/accel	/jointset/knee_l/knee_adduction_l/accel	/jointset/knee_l/knee_rotation_l/accel	/jointset/ankle_l/ankle_angle_l/accel	/jointset/subtalar_l/subtalar_angle_l/accel	gamma_cid13_p0	gamma_cid13_p1	gamma_cid13_p2	gamma_cid13_p3	gamma_cid13_p4	gamma_cid13_p5	gamma_cid14_p0
1.5	-0.3683061033762993	-0.02385676090360341	0.7630525681036784	1.101479272011913	-0.4350364051388958	-0.2127483860923322	-0.2247758282116742	0.7966203678564318	0.7966203678563363	-0.1348705233358544	-0.1448473693589697	0.124240964614836	-0.0215632832535919	0.6782238271769445	0.2759165744762043	0.5272138663560577	-2.445131091856664	0.2114840248638351	-0.7146379485933321	0.3154392511388515	-1.994139721964894	-1.994139721964762	-0.1180014445653913	0.137292472899144	-0.3886180866913213	0.04469627368570246	-0.1748752084553174	0.02839527653976776	-0.007675674055455401	-0.2025530164873293	0.04324871724583983	0.04332110014320312	0.1685442055360817	-18.32266811212943	-18.54994868969313	5.983935377758121	-7.613489341412565	-520.6567636822883	-61.74654964752059	-25.32616982572664	0.6723850962859443	0.7029803815703675	-0.5061520584469037	-1.30603180035132	0.7039343471381251	-0.1629429040337571	1.456102134964421	-1.307439984854782	-1.307439984854814	0.113626611339769	0.225427713859687	-0.4769915289551572	0.5153243926453138	4.689091416424356e-07	6.961261427945584e-07	-2.47846398567787e-06	-3.179669126861524e-08	6.653627469147499e-07	-2.159931269755134e-09	4.427658163047397e-07
1.51	-0.3614903103916973	-0.02106275711742414	0.7682983306016014	1.076964455084493	-0.4328878876459781	-0.2199015115024134	-0.221549907315432	0.7766159555215454	0.7766159555215177	-0.1360479853849844	-0.1434643876751151	0.1203310882658474	-0.02109237168111622	0.6848377517770541	0.2828439236120214	0.521824787381174	-2.457484338279871	0.2181954123310161	-0.7158776831493979	0.3297094139739137	-2.006458723046491	-2.006458723046476	-0.1174942761526308	0.1392947324408314	-0.3932924047386576	0.04948496117031401	-0.1690111094154658	0.02759058551831918	-0.007316525711664538	-0.1994069092979684	0.04267394672143228	0.04267915448456251	0.163758806000044	-18.2890654417764	-18.28422728394205	5.949786540711258	-7.312399614349681	-516.67668617989	-61.99618610652371	-26.22635897630063	0.641368784723046	0.6815961769545419	-0.572245753871755	-1.14774329990363	0.6512030216663033	-0.0877166718621311	1.407146237437537	-1.151605000053093	-1.151605000070657	0.01889059185108529	0.1858931621399017	-0.4529066592986866	0.4604985324311901	4.228412537866366e-07	9.684167018574813e-07	-1.954525450220403e-06	6.46584794074591e-08	6.121261157044652e-07	8.738961914726254e-08	4.083533011882323e-07
1.52	-0.3546112836325241	-0.01820068304041327	0.7734868103224029	1.052336551245519	-0.4306729638633574	-0.2270636798461496	-0.2181823502149077	0.7564968582097945	0.7564968582098351	-0.1372204500228605	-0.1420617297782838	0.11637641779305	-0.020573601712582	0.6908705820911469	0.289530632642526	0.5157573109317851	-2.467748474167005	0.2247652828045271	-0.7164465353242293	0.3437664919953926	-2.017076717337726	-2.017076717337828	-0.1170019623155944	0.1412277154951849	-0.3975769114530266	0.05426795289741067	-0.1631470103756351	0.02678589449686529	-0.006957377367844735	-0.1962608021086111	0.04209917619702447	0.04203720882591509	0.1589734064639878	-18.25875161525922	-18.02126377628475	5.919886496531464	-7.044219372065381	-512.7640647246621	-62.29564051591355	-27.1265085313913	0.5561662390826014	0.6548523605078727	-0.6418315533479426	-0.8882096931367718	0.6756309484041132	-0.02876642778687089	1.413485172247748	-0.9672386267823725	-0.9672386267823094	0.1106556961949694	0.2115724163929161	-0.3990292623617101	0.5141852411423417	4.00421040088442e-07	1.177082759922667e-06	-1.641796305861599e-06	1.279897937948508e-07	5.952801463550808e-07	1.622088603551675e-07	3.920476104635622e-07
1.53	-0.3476748695536296	-0.01527300621573879	0.7786113189685606	1.027616342347952	-0.4283931255350739	-0.2342287999023913	-0.2146755579873511	0.7362800408594942	0.7362800408594774	-0.1383878373064556	-0.1406404793519942	0.1123808439726999	-0.020007101540577	0.6963030799708951	0.2959576132249385	0.509037801022534	-2.475932812214406	0.2311746425308058	-0.7164768016899294	0.3575391559459505	-2.025995042172045	-2.025995042172079	-0.116470433923249	0.1430091265348007	-0.4014674280426524	0.05903072042186029	-0.1570897074718513	0.02587506884513075	-0.006623417530869042	-0.1934999093553309	0.04200253133895312	0.04107766382524674	0.1540099830789699	-18.09435201822008	-17.6368388457509	5.86261913661893	-6.776215980205831	-508.9910716814899	-62.36581534086491	-28.02682792828888	0.5204333092124196	0.6295872850774962	-0.7028775452587157	-0.7294477948263803	0.61943576321322	0.0253077951741307	1.351237370973202	-0.8104521393215268	-0.8104521393113459	0.0253344664422193	0.1591042158005147	-0.3734573024041064	0.4570713193615776	4.031264801827017e-07	1.318147785677756e-06	-1.553477139545123e-06	1.561270108755176e-07	6.170992552329023e-07	2.213771480283904e-07	3.949804206552192e-07
1.54	-0.3406874021465791	-0.01228246630964628	0.7836654591485168	1.002825109683051	-0.4260500241538331	-0.241391129715063	-0.2110326230473867	0.715982775715338	0.7159827757152647	-0.1395497226949876	-0.1392018790616983	0.1083484860974252	-0.01939302393107444	0.7010812477223021	0.3021032489261334	0.5016836176914825	-2.481953227633194	0.2374178933960241	-0.7158884866102009	0.3709950344770443	-2.033166276108958	-2.033166276108924	-0.1159015833033872	0.1446976882966013	-0.4049337224379218	0.06378344039692264	-0.151032404568084	0.02496424319339339	-0.006289457693885918	-0.1907390166020523	0.04190588648088207	0.04011811882457516	0.1490465596939371	-17.93163977513359	-17.25597850653557	5.8103302043095	-6.545964878307529	-505.2582499692811	-62.48317809171099	-28.92819745199053	0.425300213414343	0.5985833842643411	-0.7687662377080337	-0.4554251674144296	0.6424091761920333	0.09494986129884471	1.350128088354939	-0.6178204473011554	-0.617820447301165	0.1181201416982527	0.1930025608298908	-0.314184823490437	0.5121757312648922	3.928614430138616e-07	1.471796554221333e-06	-1.407954206111456e-06	1.966852654071277e-07	6.149264255788654e-07	2.729009956582964e-07	3.920910328364065e-07
1.55	-0.3336554372755992	-0.009231903153942681	0.7886429660621012	0.9779844523136413	-0.4236453768303335	-0.2485451784189843	-0.2072568865792914	0.695622699851675	0.695622699851673	-0.1407053567818486	-0.1377473658537793	0.1042837214667285	-0.0187314345194869	0.7051967555898376	0.3079583747320943	0.493719947668348	-2.485815976373917	0.2434737450525273	-0.7148118360745981	0.3840845110350632	-2.038548507197498	-2.038548507197531	-0.1152341503663618	0.1461948044686825	-0.4079400639114584	0.06852691627784803	-0.1448462392016565	0.02357537174112527	-0.005992617030358901	-0.1884059935004483	0.04217771212424132	0.03916363578216377	0.1439725652190581	-17.6657701819777	-16.896239223367	5.762390530256416	-6.357871358459102	-501.7348200375453	-62.68324787780134	-29.83190691787122	0.3874278966181451	0.5713824639461631	-0.8247262788850034	-0.2973546252023144	0.5814063110000811	0.1307781901529728	1.278195223490346	-0.4534414580041502	-0.4534414580142366	0.0399634336039939	0.1262809986416278	-0.281931509166437	0.4541537341441986	3.676521603027553e-07	1.639943982934254e-06	-1.19652258447755e-06	2.515547152626497e-07	5.851107102250796e-07	3.156171188904682e-07	3.824934603533576e-07
1.56	-0.3265857669613046	-0.006124307683142635	0.7935379244966004	0.9531160364772626	-0.4211813243601449	-0.2556851095094576	-0.2033522877888232	0.6752177982734517	0.6752177982735212	-0.1418545348265559	-0.136278238513493	0.1001912788813199	-0.01802266630556253	0.7086223363851728	0.3135097119454237	0.4851739218744605	-2.487504921026686	0.2492989227338569	-0.713064963920516	0.3967674989516809	-2.042131419020989	-2.04213141902109	-0.114610374873364	0.1476205147705402	-0.4104693133802413	0.07321920086428732	-0.1386600738352456	0.02218650028885288	-0.00569577636681411	-0.1860729703988473	0.04244953776760012	0.03820915273974689	0.1388985707441648	-17.40390761783966	-16.53886161613844	5.718327251244684	-6.193480422245263	-498.2816805628019	-62.93073694044816	-30.72739807977038	0.2873147989743003	0.5378256657380373	-0.8852373918586495	-0.02066434982360691	0.596274381157336	0.2289941849947237	1.268830360074658	-0.2579565942916439	-0.2579565942916485	0.1093886528927064	0.1787213867852043	-0.2187664225396892	0.5019374723676786	3.371808059703521e-07	1.769312981921198e-06	-9.953241359808481e-07	2.998181402922339e-07	5.454317529806883e-07	3.474777514543311e-07	3.687725452590548e-07
